<svg version="1.1" id="Layer_1" xmlns="http://www.w3.org/2000/svg" xmlns:xlink="http://www.w3.org/1999/xlink" x="0px" y="0px"
	 width="100%" viewBox="0 0 125 133" enable-background="new 0 0 125 133" xml:space="preserve">
<path fill="#FDFDFD" opacity="1.000000" stroke="none" 
	d="
M71.000000,134.000000 
	C47.355801,134.000000 24.211601,134.000000 1.033701,134.000000 
	C1.033701,89.732155 1.033701,45.464272 1.033701,1.098195 
	C42.560589,1.098195 84.121483,1.098195 125.841187,1.098195 
	C125.841187,45.332878 125.841187,89.666389 125.841187,134.000000 
	C107.798058,134.000000 89.649033,134.000000 71.000000,134.000000 
M31.701389,100.057045 
	C31.431564,100.236229 31.245165,100.479355 30.192833,100.844910 
	C26.041780,100.911606 21.870827,100.772545 17.751860,101.170952 
	C16.523415,101.289772 15.440612,102.914360 14.291078,103.849037 
	C15.413311,104.611809 16.493498,105.955254 17.664824,106.040070 
	C23.788723,106.483528 29.936090,106.799675 36.074646,106.788971 
	C42.285679,106.778145 48.495949,106.333893 55.244453,106.057465 
	C56.511917,109.675049 57.939117,114.079720 59.643513,118.374382 
	C60.056435,119.414848 61.365715,120.728821 62.295773,120.755211 
	C63.198948,120.780815 64.687698,119.472160 64.977692,118.475471 
	C66.258652,114.072906 67.199944,109.571518 68.875847,104.739090 
	C69.989937,102.186417 71.104019,99.633743 72.476639,96.488708 
	C73.512840,99.079933 74.275810,100.912254 74.978867,102.767288 
	C75.683838,104.627380 76.256439,106.540154 77.015999,108.376503 
	C78.466698,111.883743 80.181793,111.912285 82.777756,109.177231 
	C84.155777,107.725372 86.304100,106.399078 88.233688,106.186371 
	C94.828758,105.459419 101.487015,105.325508 108.107079,104.790955 
	C109.694756,104.662758 111.228012,103.860489 112.786293,103.368233 
	C112.739494,102.537582 112.692688,101.706940 112.645889,100.876289 
	C102.095421,99.483284 91.373238,100.722305 80.396614,100.627892 
	C78.612801,95.485039 76.853859,90.321777 75.026306,85.182922 
	C74.078529,82.517876 71.488914,80.591499 70.215500,83.653809 
	C67.694939,89.715271 66.572929,96.358284 64.191597,102.953194 
	C63.520382,103.912598 62.849167,104.872002 61.863022,106.281540 
	C60.738438,103.256882 59.930176,100.601662 58.757339,98.118652 
	C58.108730,96.745461 56.993675,94.897827 55.821938,94.676346 
	C54.801086,94.483391 52.829220,96.015343 52.286137,97.234421 
	C50.784935,100.604225 48.341213,101.301170 45.135883,100.385765 
	C45.135883,100.385765 45.023022,100.030197 45.286041,99.375839 
	C45.219593,98.917023 45.153145,98.458214 45.306137,97.084877 
	C45.329288,92.422752 45.373814,87.760605 45.370922,83.098495 
	C45.365707,74.682365 48.036282,71.942902 56.297058,71.941330 
	C63.291241,71.940010 70.286522,72.015274 77.279373,71.917938 
	C92.429802,71.707054 103.296898,60.379276 103.319160,44.878963 
	C103.341415,29.383631 92.496796,18.044149 77.298317,17.888521 
	C64.976456,17.762352 52.652264,17.830309 40.329258,17.865557 
	C34.579430,17.882004 31.656111,20.214212 31.737129,24.539806 
	C31.818140,28.865107 34.745590,31.078600 40.489799,31.088404 
	C51.980255,31.108017 63.470852,31.074562 74.961212,31.114080 
	C84.199287,31.145851 89.771782,36.346905 89.801109,44.867111 
	C89.830696,53.466679 84.314789,58.686516 75.097694,58.726479 
	C67.270981,58.760418 59.439945,58.586792 51.618233,58.790134 
	C40.489170,59.079456 32.502953,67.069115 31.886539,78.916862 
	C31.977619,85.931648 32.068699,92.946434 31.701389,100.057045 
z"/>
<path fill="#05225D" opacity="1.000000" stroke="none" 
	d="
M32.097656,78.000603 
	C32.502953,67.069115 40.489170,59.079456 51.618233,58.790134 
	C59.439945,58.586792 67.270981,58.760418 75.097694,58.726479 
	C84.314789,58.686516 89.830696,53.466679 89.801109,44.867111 
	C89.771782,36.346905 84.199287,31.145851 74.961212,31.114080 
	C63.470852,31.074562 51.980255,31.108017 40.489799,31.088404 
	C34.745590,31.078600 31.818140,28.865107 31.737129,24.539806 
	C31.656111,20.214212 34.579430,17.882004 40.329258,17.865557 
	C52.652264,17.830309 64.976456,17.762352 77.298317,17.888521 
	C92.496796,18.044149 103.341415,29.383631 103.319160,44.878963 
	C103.296898,60.379276 92.429802,71.707054 77.279373,71.917938 
	C70.286522,72.015274 63.291241,71.940010 56.297058,71.941330 
	C48.036282,71.942902 45.365707,74.682365 45.370922,83.098495 
	C45.373814,87.760605 45.329288,92.422752 44.770481,97.542122 
	C36.382687,97.892067 35.004509,96.514626 34.999435,88.768890 
	C34.997917,86.453194 35.341484,84.064133 34.870365,81.848282 
	C34.569500,80.433189 33.063400,79.274338 32.097656,78.000603 
z"/>
<path fill="#FC6F12" opacity="1.000000" stroke="none" 
	d="
M68.264221,105.105911 
	C67.199944,109.571518 66.258652,114.072906 64.977692,118.475471 
	C64.687698,119.472160 63.198948,120.780815 62.295773,120.755211 
	C61.365715,120.728821 60.056435,119.414848 59.643513,118.374382 
	C57.939117,114.079720 56.511917,109.675049 55.244453,106.057465 
	C48.495949,106.333893 42.285679,106.778145 36.074646,106.788971 
	C29.936090,106.799675 23.788723,106.483528 17.664824,106.040070 
	C16.493498,105.955254 15.413311,104.611809 14.291079,103.849037 
	C15.440612,102.914360 16.523415,101.289772 17.751860,101.170952 
	C21.870827,100.772545 26.041780,100.911606 31.100281,100.938354 
	C36.374775,100.940437 40.741825,100.849083 45.108871,100.757721 
	C48.341213,101.301170 50.784935,100.604225 52.286137,97.234421 
	C52.829220,96.015343 54.801086,94.483391 55.821938,94.676346 
	C56.993675,94.897827 58.108730,96.745461 58.757339,98.118652 
	C59.930176,100.601662 60.738438,103.256882 61.863022,106.281540 
	C62.849167,104.872002 63.520382,103.912598 64.715660,103.154221 
	C66.247887,103.938805 67.256058,104.522354 68.264221,105.105911 
z"/>
<path fill="#FD7114" opacity="1.000000" stroke="none" 
	d="
M68.570038,104.922501 
	C67.256058,104.522354 66.247887,103.938805 65.056236,103.058067 
	C66.572929,96.358284 67.694939,89.715271 70.215500,83.653809 
	C71.488914,80.591499 74.078529,82.517876 75.026306,85.182922 
	C76.853859,90.321777 78.612801,95.485039 80.396614,100.627892 
	C91.373238,100.722305 102.095421,99.483284 112.645889,100.876289 
	C112.692688,101.706940 112.739494,102.537582 112.786293,103.368233 
	C111.228012,103.860489 109.694756,104.662758 108.107079,104.790955 
	C101.487015,105.325508 94.828758,105.459419 88.233688,106.186371 
	C86.304100,106.399078 84.155777,107.725372 82.777756,109.177231 
	C80.181793,111.912285 78.466698,111.883743 77.015999,108.376503 
	C76.256439,106.540154 75.683838,104.627380 74.978867,102.767288 
	C74.275810,100.912254 73.512840,99.079933 72.476639,96.488708 
	C71.104019,99.633743 69.989937,102.186417 68.570038,104.922501 
z"/>
<path fill="#092257" opacity="1.000000" stroke="none" 
	d="
M31.992098,78.458733 
	C33.063400,79.274338 34.569500,80.433189 34.870365,81.848282 
	C35.341484,84.064133 34.997917,86.453194 34.999435,88.768890 
	C35.004509,96.514626 36.382687,97.892067 44.660759,97.999382 
	C45.153145,98.458214 45.219593,98.917023 44.692184,99.668739 
	C40.118816,99.961502 36.139297,99.961357 32.159782,99.961220 
	C32.068699,92.946434 31.977619,85.931648 31.992098,78.458733 
z"/>
<path fill="#C3C1CB" opacity="1.000000" stroke="none" 
	d="
M31.930586,100.009132 
	C36.139297,99.961357 40.118816,99.961502 44.560677,99.995918 
	C45.023022,100.030197 45.135883,100.385765 45.122375,100.571747 
	C40.741825,100.849083 36.374775,100.940437 31.574959,100.909119 
	C31.245165,100.479355 31.431564,100.236229 31.930586,100.009132 
z"/>
</svg>